<svg width="41" height="41" fill="none" xmlns="http://www.w3.org/2000/svg"><path d="M40.488 20.588c0 11.041-8.959 20-20 20s-20-8.959-20-20c0-11.042 8.959-20 20-20s20 8.958 20 20z" fill="#fff"/><path d="M37.646 20.588c0 9.455-7.67 17.157-17.157 17.157-9.488 0-17.157-7.67-17.157-17.157S11 3.431 20.489 3.431c9.487 0 17.157 7.703 17.157 17.157z" fill="#ED1D24"/><path d="M30.835 27.563a1.256 1.256 0 11-1.256-1.256c.727 0 1.256.562 1.256 1.256zm-15.47.694c-1.323-1.389-.298-4.066-.066-6.314-.298.297-3.108 6.876-5.686 6.876H9.48c-2.347-.232-2.05-3.471-1.322-5.422h3.769c-1.157 3.207.43 1.885 1.52-.132 2.182-4.43 2.215-4.529 4.595-11.207h4.166c-1.223 3.802-2.281 7.207-2.777 11.14 0 .133.066.298.231.232.86-.132 5.52-10.644 5.95-11.372h4.166s-4.43 12.232-3.702 13.389c.363.66.859-.595 1.322-1.091l.66.661c-1.222 1.355-2.61 3.835-4.561 3.835-.165 0-.298-.033-.463-.033a1.69 1.69 0 01-.793-.43c-2.248-1.95 1.818-9.223 1.388-9.686-.132 0-.264.364-.496.86-1.223 2.545-4.066 9.289-6.413 9.289-.397-.033-.959-.166-1.355-.595z" fill="#fff"/></svg>