<svg width="36" height="36" fill="none" xmlns="http://www.w3.org/2000/svg"><path d="M.488 7.15A6.563 6.563 0 017.051.588h21.875a6.563 6.563 0 016.562 6.562v21.875a6.563 6.563 0 01-6.562 6.563H7.05a6.563 6.563 0 01-6.563-6.563V7.15z" fill="#78BD20"/><path d="M28.841 9.963c.525-2.875-.282-4.875-3.592-4.875H14.957l-.968 5.042h8.758c.524 0 .686.291.605.916l-1.13 6h-5.449l.808-4.166-12.593 6.25h9.364l-.807 4.166 8.274-4.083-1.09 5.917c-.162.583-.444.875-1.09.875h-8.677l-.929 5.083h10.333c3.269 0 4.883-2 5.367-4.875l3.108-16.25z" fill="#000"/></svg>