<svg width="61" height="61" fill="none" xmlns="http://www.w3.org/2000/svg"><path d="M24.488 22.287l14.941 8.3-14.94 8.301v-16.6z" stroke="#319559" stroke-width="2"/><path fill-rule="evenodd" clip-rule="evenodd" d="M40.457 9.855l6.322 10.95c.118.196.233.395.345.596l2.994 5.187L52.2 22.98A23.074 23.074 0 0040.457 9.855zm-5.699-1.872a23.128 23.128 0 00-4.27-.395c-4.81 0-9.274 1.476-12.965 4h19.316l-2.081-3.605zm18.666 20.878l-6.304 10.92c-.109.197-.221.391-.337.583l-3.016 5.224h4.157a22.91 22.91 0 005.564-15c0-.581-.021-1.157-.064-1.727zm-9.97 20.727H24.138l2.08 3.604c1.384.26 2.811.396 4.27.396 4.81 0 9.274-1.476 12.966-4zM20.519 51.32l-6.315-10.938a18.755 18.755 0 01-.358-.62l-2.988-5.175-2.082 3.607A23.074 23.074 0 0020.519 51.32zM7.552 32.315l6.295-10.903c.115-.208.234-.414.356-.617l3.006-5.207h-4.157a22.91 22.91 0 00-5.564 15c0 .58.022 1.156.064 1.727z" fill="#7981FB"/></svg>