<svg width="61" height="61" fill="none" xmlns="http://www.w3.org/2000/svg"><mask id="path-1-inside-1_1_3007" fill="#fff"><path d="M3.488 42.588c0 8.284 6.716 15 15 15v2c-9.389 0-17-7.611-17-17h2zm54-24c0-8.285-6.716-15-15-15v-2c9.389 0 17 7.61 17 17h-2z"/><path d="M7.488 42.588c0 6.075 4.925 11 11 11v2c-7.18 0-13-5.82-13-13h2zm46-24c0-6.075-4.925-11-11-11v-2c7.18 0 13 5.82 13 13h-2z"/><path d="M42.488 11.588a7 7 0 017 7h2a9 9 0 00-9-9v2zm-24 38a7 7 0 01-7-7h-2a9 9 0 009 9v-2z"/></mask><path d="M18.488 57.588h2v-2h-2v2zm-15-15h2v-2h-2v2zm39-39h-2v2h2v-2zm15 15h-2v2h2v-2zm-39 41v2h2v-2h-2zm-17-17v-2h-2v2h2zm41-41v-2h-2v2h2zm17 17v2h2v-2h-2zm-41 35h2v-2h-2v2zm-11-11h2v-2h-2v2zm35-35h-2v2h2v-2zm11 11h-2v2h2v-2zm-35 37v2h2v-2h-2zm-13-13v-2h-2v2h2zm37-37v-2h-2v2h2zm13 13v2h2v-2h-2zm-6 0h-2v2h2v-2zm-7-7h-2v2h2v-2zm-31 31h2v-2h-2v2zm7 7h2v-2h-2v2zm33-31v2h2v-2h-2zm-9-9v-2h-2v2h2zm-33 33v-2h-2v2h2zm9 9v2h2v-2h-2zm0 4c-7.18 0-13-5.82-13-13h-4c0 9.389 7.611 17 17 17v-4zm24-50c7.18 0 13 5.82 13 13h4c0-9.39-7.611-17-17-17v4zm-24 52c-8.284 0-15-6.716-15-15h-4c0 10.493 8.507 19 19 19v-4zm24-54c8.284 0 15 6.715 15 15h4c0-10.494-8.506-19-19-19v4zm-24 48a9 9 0 01-9-9h-4c0 7.18 5.82 13 13 13v-4zm24-42a9 9 0 019 9h4c0-7.18-5.82-13-13-13v4zm-24 44c-6.075 0-11-4.925-11-11h-4c0 8.284 6.716 15 15 15v-4zm24-46c6.075 0 11 4.925 11 11h4c0-8.285-6.716-15-15-15v4zm9 11a9 9 0 00-9-9v4a5 5 0 015 5h4zm-42 24a9 9 0 009 9v-4a5 5 0 01-5-5h-4zm44-24c0-6.075-4.925-11-11-11v4a7 7 0 017 7h4zm-46 24c0 6.075 4.925 11 11 11v-4a7 7 0 01-7-7h-4zm4-2h-2v4h2v-4zm-4 0h-2v4h2v-4zm-4 0h-2v4h2v-4zm13 9v2h4v-2h-4zm0 4v2h4v-2h-4zm0 4v2h4v-2h-4zm33-37h2v-4h-2v4zm4 0h2v-4h-2v4zm4 0h2v-4h-2v4zm-13-9v-2h-4v2h4zm0-4v-2h-4v2h4zm0-4v-2h-4v2h4z" fill="#5FBAFF" mask="url(#path-1-inside-1_1_3007)"/><path d="M16.488 20.588a4 4 0 014-4h20a4 4 0 014 4v20a4 4 0 01-4 4h-20a4 4 0 01-4-4v-20z" stroke="#E83D43" stroke-width="2"/><circle cx="30.488" cy="30.588" r="5" stroke="#E83D43" stroke-width="2"/><circle cx="37.988" cy="23.088" r="1.5" fill="#E83D43"/></svg>